<svg xmlns="http://www.w3.org/2000/svg" xmlns:xlink="http://www.w3.org/1999/xlink" width="16" height="16" viewBox="0 0 16 16"><defs><path id="j6xca" d="M318.464 2106.918c0 .974-.7 1.69-1.896 1.69-1.126 0-1.88-.716-1.88-1.69 0-.997.75-1.704 1.9-1.704 1.149 0 1.853.707 1.876 1.704zm-3.468 14.092v-11.023h3.01v11.023zm5.02-11.023h2.685l.322 1.122c.444-.71 1.406-1.503 3.227-1.503 2.22 0 3.756 1.295 3.756 4.49v6.883h-3v-6.402c0-1.397-.965-2.351-2.187-2.351-.933 0-1.471.643-1.716 1.264-.089.222-.111.533-.111.844v6.645h-2.977z"/></defs><g><g transform="translate(-314 -2105)"><use fill="#fff" xlink:href="#j6xca"/></g></g></svg>