<svg xmlns="http://www.w3.org/2000/svg" xmlns:xlink="http://www.w3.org/1999/xlink" width="16" height="12" viewBox="0 0 16 12"><defs><path id="b5kja" d="M358.609 2110.178c.487.27 6.238 4.01 6.489 4.15.251.138.577.206.905.206.328 0 .654-.068.905-.207.251-.138 6.002-3.879 6.49-4.149.487-.27.949-1.118.053-1.118h-14.896c-.895 0-.434.848.054 1.118zm14.995 2.06c-.554.298-6.357 3.967-6.696 4.15-.34.182-.577.206-.905.206-.328 0-.566-.024-.905-.207-.34-.182-6.142-3.85-6.696-4.15-.39-.209-.386.037-.386.227v7.555c0 .432.557.988.99.988H373c.433 0 .99-.556.99-.988v-7.555c0-.19.004-.436-.386-.226z"/></defs><g><g transform="translate(-358 -2109)"><use fill="#fff" xlink:href="#b5kja"/></g></g></svg>