<svg xmlns="http://www.w3.org/2000/svg" xmlns:xlink="http://www.w3.org/1999/xlink" width="90" height="131" viewBox="0 0 90 131"><defs><path id="yy39b" d="M540.807 1005.46l3.95 40.16 36.753-16.66s-7.82-26.455-40.703-23.5z"/><path id="yy39f" d="M542.663 1034.244s5.786.646 13.135 7.583c7.35 6.938-9.541 7.194-9.541 7.194s-8.728-3.884-8.827-4.712c-.1-.827 2.09-9.955 2.09-9.955"/><path id="yy39d" d="M617.658 918.42c11.24 6.49 15.092 20.862 8.602 32.102l-5.5 9.526c-6.49 11.24-20.862 15.09-32.101 8.602-11.24-6.49-15.091-20.862-8.602-32.102l5.5-9.526c6.49-11.24 20.862-15.091 32.101-8.602z"/><path id="yy39h" d="M618.592 917.804l20.784 12-13.5 23.383-20.784-12z"/><path id="yy39c" d="M585.307 927.455s11.172 4.14 21.346 10.015c10.178 5.876 19.357 13.485 19.357 13.485l-12.5 21.65-40.703-23.5z"/><path id="yy39j" d="M608.092 935.991l21.65 12.5-13 22.517-21.65-12.5z"/><path id="yy39a" d="M574.85 945.326s11.172 4.141 21.346 10.015c10.178 5.876 19.357 13.485 19.357 13.485l-34.043 60.134s-2.962-4.02-8.526-7.233c-6.562-3.788-14.713.744-14.713.744s.094-9.184-7.065-13.317c-5.444-3.144-10.4-3.695-10.4-3.695z"/><path id="yy39l" d="M602.592 946.445l23.382 13.5-44 76.21-23.382-13.5z"/><clipPath id="yy39k"><use xlink:href="#yy39a"/></clipPath><clipPath id="yy39e"><use xlink:href="#yy39b"/></clipPath><clipPath id="yy39i"><use xlink:href="#yy39c"/></clipPath><clipPath id="yy39g"><use xlink:href="#yy39d"/></clipPath></defs><g><g transform="translate(-540 -915)"><g><use fill="#ffecba" xlink:href="#yy39b"/></g><g clip-path="url(#yy39e)"><use fill="#393939" xlink:href="#yy39f"/></g><g><use fill="#e88f8d" xlink:href="#yy39d"/></g><g clip-path="url(#yy39g)"><use fill="#d97475" xlink:href="#yy39h"/></g><g><use fill="#daeaf2" xlink:href="#yy39c"/></g><g clip-path="url(#yy39i)"><use fill="#bedae8" xlink:href="#yy39j"/></g><g><use fill="#f1c40f" xlink:href="#yy39a"/></g><g clip-path="url(#yy39k)"><use fill="#f39c12" xlink:href="#yy39l"/></g></g></g></svg>